<?xml version="1.0" encoding="UTF-8"?>
<svg width="200px" height="80px" viewBox="0 0 200 80" version="1.1" xmlns="http://www.w3.org/2000/svg" xmlns:xlink="http://www.w3.org/1999/xlink">
    <title>AWS Q Logo</title>
    <defs>
        <linearGradient id="qGradient" x1="0%" y1="0%" x2="100%" y2="100%">
            <stop offset="0%" style="stop-color:#7b34dd;stop-opacity:1" />
            <stop offset="100%" style="stop-color:#00c2cb;stop-opacity:1" />
        </linearGradient>
    </defs>
    <g stroke="none" stroke-width="1" fill="none" fill-rule="evenodd">
        <g transform="translate(10.000000, 10.000000)">
            <path d="M38.1573333,40.7346667 C38.1573333,41.8773333 38.2853333,42.7893333 38.5093333,43.4346667 C38.7653333,44.08 39.1066667,44.7573333 39.5773333,45.4666667 C39.7373333,45.6906667 39.8013333,45.9146667 39.8013333,46.1066667 C39.8013333,46.3626667 39.6413333,46.6186667 39.2893333,46.8746667 L37.4973333,48.0173333 C37.2413333,48.1773333 36.9853333,48.2626667 36.7613333,48.2626667 C36.5053333,48.2626667 36.2493333,48.1346667 35.9933333,47.9106667 C35.5226667,47.4826667 35.116,47.0333333 34.7746667,46.584 C34.4333333,46.1066667 34.092,45.5573333 33.7293333,44.88 C32.0426667,46.968 29.9013333,48.0173333 27.2773333,48.0173333 C25.4,48.0173333 23.9013333,47.4826667 22.8226667,46.4253333 C21.744,45.368 21.2093333,43.9333333 21.2093333,42.1413333 C21.2093333,40.2213333 21.8546667,38.6586667 23.1653333,37.4733333 C24.476,36.288 26.2253333,35.6853333 28.4293333,35.6853333 C29.2773333,35.6853333 30.1573333,35.7493333 31.0693333,35.8453333 C31.9813333,35.9413333 32.9253333,36.1013333 33.9413333,36.2933333 L33.9413333,34.2613333 C33.9413333,32.6346667 33.6213333,31.4813333 32.9893333,30.8253333 C32.3253333,30.1693333 31.2146667,29.8493333 29.6093333,29.8493333 C28.7613333,29.8493333 27.8813333,29.9453333 26.9693333,30.1693333 C26.0573333,30.3933333 25.1773333,30.6813333 24.3293333,31.0546667 C23.9453333,31.2466667 23.6573333,31.3426667 23.4653333,31.3746667 C23.2733333,31.4066667 23.1333333,31.4386667 23.0373333,31.4386667 C22.7173333,31.4386667 22.5573333,31.1826667 22.5573333,30.6386667 L22.5573333,29.3386667 C22.5573333,28.9226667 22.5893333,28.6026667 22.6853333,28.4106667 C22.7813333,28.2186667 22.9733333,28.0266667 23.2933333,27.8346667 C24.1413333,27.3426667 25.1773333,26.9373333 26.4026667,26.6173333 C27.628,26.2653333 28.9173333,26.1053333 30.2706667,26.1053333 C33.0346667,26.1053333 35.0346667,26.7186667 36.2626667,27.9466667 C37.4586667,29.1746667 38.0613333,31.0866667 38.0613333,33.6786667 L38.0613333,40.7346667 L38.1573333,40.7346667 Z M28.7293333,44.4 C29.5453333,44.4 30.3933333,44.2293333 31.2733333,43.8986667 C32.1533333,43.568 32.9053333,42.9973333 33.5293333,42.2346667 C33.8706667,41.7746667 34.1266667,41.2506667 34.2546667,40.6586667 C34.3826667,40.0666667 34.4786667,39.3253333 34.4786667,38.4453333 L34.4786667,37.9213333 C33.7053333,37.7613333 32.8893333,37.6333333 32.0733333,37.5373333 C31.2573333,37.4413333 30.4626667,37.3986667 29.6786667,37.3986667 C28.2866667,37.3986667 27.2773333,37.6653333 26.6213333,38.2146667 C25.9653333,38.764 25.6453333,39.5586667 25.6453333,40.6373333 C25.6453333,41.6533333 25.9013333,42.4053333 26.4253333,42.9226667 C26.9173333,43.4826667 27.6906667,43.7493333 28.7293333,43.7493333 L28.7293333,44.4 Z M49.8173333,47.8893333 C49.4013333,47.8893333 49.1133333,47.8253333 48.9213333,47.6653333 C48.7293333,47.5373333 48.5693333,47.2493333 48.4413333,46.8333333 L42.8973333,27.5626667 C42.7693333,27.1466667 42.7053333,26.8586667 42.7053333,26.7306667 C42.7053333,26.4106667 42.8653333,26.2506667 43.1853333,26.2506667 L45.5293333,26.2506667 C45.9773333,26.2506667 46.2653333,26.3146667 46.4253333,26.4746667 C46.6173333,26.6026667 46.7453333,26.8906667 46.8733333,27.3066667 L50.8653333,43.9973333 L54.5373333,27.3066667 C54.6333333,26.8586667 54.7613333,26.6026667 54.9533333,26.4746667 C55.1453333,26.3466667 55.4653333,26.2506667 55.8813333,26.2506667 L57.8173333,26.2506667 C58.2653333,26.2506667 58.5853333,26.3146667 58.7773333,26.4746667 C58.9693333,26.6026667 59.1293333,26.8906667 59.1933333,27.3066667 L62.9293333,44.2293333 L67.0173333,27.3066667 C67.1453333,26.8586667 67.3053333,26.6026667 67.4653333,26.4746667 C67.6573333,26.3466667 67.9453333,26.2506667 68.3613333,26.2506667 L70.5653333,26.2506667 C70.8853333,26.2506667 71.0453333,26.4106667 71.0453333,26.7306667 C71.0453333,26.8586667 71.0133333,26.9866667 70.9813333,27.1466667 C70.9493333,27.3066667 70.8853333,27.5306667 70.7893333,27.8186667 L65.0493333,46.8333333 C64.9213333,47.2493333 64.7613333,47.5373333 64.5693333,47.6653333 C64.3773333,47.7933333 64.0573333,47.8573333 63.6733333,47.8573333 L61.6093333,47.8573333 C61.1613333,47.8573333 60.8413333,47.7933333 60.6493333,47.6333333 C60.4573333,47.4733333 60.2973333,47.2173333 60.2333333,46.8013333 L56.5613333,30.7693333 L52.9213333,46.7693333 C52.8253333,47.1853333 52.6973333,47.4413333 52.5053333,47.6013333 C52.3133333,47.7613333 51.9613333,47.8253333 51.5453333,47.8253333 L49.8173333,47.8253333 L49.8173333,47.8893333 Z" fill="#FF9900"></path>
            <text x="120" y="45" font-family="Arial, sans-serif" font-size="50" font-weight="bold" fill="url(#qGradient)">Q</text>
        </g>
    </g>
</svg>