<?xml version="1.0" standalone="no"?>
<!DOCTYPE svg PUBLIC "-//W3C//DTD SVG 20010904//EN"
 "http://www.w3.org/TR/2001/REC-SVG-20010904/DTD/svg10.dtd">
<svg version="1.0" xmlns="http://www.w3.org/2000/svg"
 width="1024.000000pt" height="1024.000000pt" viewBox="0 0 1024.000000 1024.000000"
 preserveAspectRatio="xMidYMid meet">

<g transform="translate(0.000000,1024.000000) scale(0.100000,-0.100000)"
fill="#000000" stroke="none">
<path d="M1445 6385 c-5 -2 -36 -9 -68 -15 -32 -7 -57 -14 -54 -16 2 -3 24 1
48 7 28 8 174 15 399 19 l355 6 -335 1 c-184 1 -339 0 -345 -2z"/>
<path d="M2143 6373 c9 -2 25 -2 35 0 9 3 1 5 -18 5 -19 0 -27 -2 -17 -5z"/>
<path d="M2220 6360 c14 -4 34 -8 45 -8 16 0 15 2 -5 8 -14 4 -34 8 -45 8 -16
0 -15 -2 5 -8z"/>
<path d="M1260 6335 c-33 -19 -21 -19 21 0 19 8 27 14 19 14 -8 0 -26 -6 -40
-14z"/>
<path d="M2330 6330 c8 -5 20 -10 25 -10 6 0 3 5 -5 10 -8 5 -19 10 -25 10 -5
0 -3 -5 5 -10z"/>
<path d="M1194 6304 c-18 -14 -18 -14 6 -3 31 14 36 19 24 19 -6 0 -19 -7 -30
-16z"/>
<path d="M2405 6297 c167 -97 260 -208 322 -382 l28 -80 1 -410 0 -410 -5 357
c-3 196 -9 360 -13 364 -5 4 -8 2 -8 -5 0 -7 -4 -10 -9 -6 -5 3 -12 1 -16 -4
-3 -6 -12 -8 -19 -5 -10 4 -14 -10 -15 -62 -2 -107 -11 -88 -11 23 0 131 -12
192 -57 283 -26 52 -57 95 -107 145 -83 83 -158 124 -280 155 -82 20 -104 21
-439 18 -323 -4 -357 -6 -419 -25 -194 -61 -348 -202 -405 -370 -14 -41 -17
-123 -23 -533 -3 -267 -7 -453 -9 -415 -2 39 -3 77 -2 85 2 13 0 13 -8 1 -5
-8 -8 -23 -5 -34 2 -11 0 -16 -4 -13 -4 4 -7 13 -7 19 0 7 -9 11 -19 9 -13 -3
-17 1 -13 12 3 8 2 18 -3 21 -6 4 -11 -49 -12 -137 -2 -79 -5 98 -8 392 l-5
535 -2 -535 c-3 -578 -1 -607 51 -723 14 -32 30 -56 35 -53 5 4 13 1 17 -5 4
-8 3 -9 -4 -5 -45 27 37 -83 113 -152 73 -66 182 -128 290 -163 65 -21 91 -22
396 -26 340 -5 444 4 538 43 l35 15 70 -71 70 -70 253 0 c189 0 253 3 253 12
0 6 -78 91 -174 187 l-175 176 35 40 c51 61 90 141 113 237 21 84 22 103 19
595 -3 500 -4 509 -27 578 -50 154 -147 280 -280 367 -40 26 -79 48 -85 48 -6
0 7 -11 29 -23z m-415 -344 c-123 -6 -498 -8 -482 -1 9 4 134 6 277 5 143 0
235 -2 205 -4z m80 -13 c-22 -7 -22 -8 -4 -9 11 -1 43 -12 70 -26 59 -30 67
-31 35 -5 -13 11 -19 20 -14 20 6 0 18 -9 28 -20 10 -11 15 -20 11 -20 -4 0 4
-14 18 -31 63 -74 61 -60 64 -476 l3 -383 -300 0 c-205 0 -301 -3 -301 -11 0
-5 61 -79 135 -164 74 -85 135 -157 135 -161 0 -3 -100 -4 -223 -2 l-223 3
-59 30 c-45 23 -66 42 -90 79 l-30 49 -3 456 c-2 297 1 468 7 492 17 57 63
112 122 144 l54 30 275 5 c151 3 284 6 295 7 15 1 13 -1 -5 -7z m60 -10 c8 -5
11 -10 5 -10 -5 0 -17 5 -25 10 -8 5 -10 10 -5 10 6 0 17 -5 25 -10z m-740
-55 c-45 -45 -50 -50 -50 -39 0 7 80 84 88 84 3 0 -14 -20 -38 -45z m-62 -87
c-10 -18 -14 -124 -18 -468 l-6 -445 -2 432 c-2 380 0 438 14 473 9 23 19 39
21 36 3 -2 -1 -15 -9 -28z m946 6 c3 -8 2 -12 -4 -9 -6 3 -10 10 -10 16 0 14
7 11 14 -7z m13 -56 c-3 -8 -6 -5 -6 6 -1 11 2 17 5 13 3 -3 4 -12 1 -19z m10
-140 c-2 -24 -4 -5 -4 42 0 47 2 66 4 43 2 -24 2 -62 0 -85z m423 97 c0 -9 -6
-12 -16 -8 -13 5 -13 7 -2 14 17 11 18 11 18 -6z m-1844 -732 c-10 -10 -19 5
-10 18 6 11 8 11 12 0 2 -7 1 -15 -2 -18z m-19 -255 c-3 -7 -5 -2 -5 12 0 14
2 19 5 13 2 -7 2 -19 0 -25z m10 -40 c-3 -8 -6 -5 -6 6 -1 11 2 17 5 13 3 -3
4 -12 1 -19z"/>
<path d="M1119 6259 l-24 -20 28 17 c15 9 27 18 27 20 0 8 -8 4 -31 -17z"/>
<path d="M1038 6197 c-55 -50 -110 -122 -144 -188 -36 -73 -28 -73 10 -1 44
80 78 125 141 184 62 59 57 63 -7 5z"/>
<path d="M851 5894 c0 -11 3 -14 6 -6 3 7 2 16 -1 19 -3 4 -6 -2 -5 -13z"/>
<path d="M842 5850 c0 -14 2 -19 5 -12 2 6 2 18 0 25 -3 6 -5 1 -5 -13z"/>
<path d="M3660 5205 l0 -665 120 0 120 0 0 219 0 219 188 4 c176 3 190 4 237
28 28 14 49 31 48 37 -2 7 2 12 8 10 7 -1 21 14 33 33 20 33 21 51 24 312 4
310 0 339 -55 399 -58 64 -90 69 -430 69 l-293 0 0 -665z m662 628 c31 -14 56
-35 75 -64 l28 -42 1 -291 1 -291 -6 285 c-7 316 -7 320 -74 374 l-39 31 -275
2 -275 2 5 -33 c3 -18 1 -39 -4 -47 -8 -13 -10 -11 -13 20 -2 23 -26 25 -26 3
0 -11 -7 -22 -15 -26 -8 -3 -14 -2 -14 2 1 4 0 14 -2 22 -2 8 -6 -248 -9 -570
l-5 -585 -3 618 -2 618 303 -3 c282 -3 305 -5 349 -25z m-525 -18 c0 -8 -4
-12 -9 -9 -4 3 -8 9 -8 15 0 5 4 9 8 9 5 0 9 -7 9 -15z m380 -158 c17 -17 17
-18 -12 -3 -22 12 -61 16 -152 16 l-123 0 0 -237 c0 -130 -2 -234 -5 -232 -2
3 -7 103 -10 222 -4 152 -3 223 5 237 11 21 18 21 145 18 114 -2 137 -6 152
-21z m-11 -19 c16 -13 30 -21 32 -20 2 2 7 0 10 -4 4 -4 3 -5 -3 -2 -7 4 -9
-57 -7 -178 l3 -184 -25 -25 c-24 -24 -30 -25 -151 -25 l-125 0 0 230 0 230
119 0 c108 0 121 -2 147 -22z m51 -300 c-1 -51 -3 -12 -3 87 0 99 2 141 3 93
2 -48 2 -129 0 -180z m-74 -155 c-7 -2 -19 -2 -25 0 -7 3 -2 5 12 5 14 0 19
-2 13 -5z m253 -101 c-17 -16 -18 -16 -5 5 7 12 15 20 18 17 3 -2 -3 -12 -13
-22z m-294 -89 c-40 -2 -103 -2 -140 0 -37 2 -4 3 73 3 77 0 107 -2 67 -3z"/>
<path d="M3680 5814 c0 -8 5 -12 10 -9 6 4 8 11 5 16 -9 14 -15 11 -15 -7z"/>
<path d="M3728 5813 c7 -3 16 -2 19 1 4 3 -2 6 -13 5 -11 0 -14 -3 -6 -6z"/>
<path d="M4620 5205 l0 -665 120 0 120 0 0 220 0 220 79 0 c73 0 79 -2 84 -22
3 -13 39 -111 80 -218 l75 -195 126 -3 c69 -1 126 -1 126 1 0 1 -40 103 -89
227 l-89 224 37 17 c42 19 87 68 99 107 4 15 7 158 7 317 0 324 0 325 -71 383
-57 47 -96 52 -413 52 l-291 0 0 -665z m73 638 l-53 -4 -3 -482 -2 -482 -3
488 -2 487 58 -2 57 -2 -52 -3z m184 1 c-3 -3 -12 -4 -19 -1 -8 3 -5 6 6 6 11
1 17 -2 13 -5z m86 -1 c-7 -2 -19 -2 -25 0 -7 3 -2 5 12 5 14 0 19 -2 13 -5z
m70 -170 c-29 -2 -77 -2 -105 0 -29 2 -6 3 52 3 58 0 81 -1 53 -3z m98 -43
l30 -30 -3 -181 c-4 -229 4 -219 -174 -219 l-124 0 0 230 0 230 121 0 c121 0
121 0 150 -30z m-284 -207 c-1 -43 -3 -10 -3 72 0 83 2 118 3 78 2 -40 2 -107
0 -150z m330 70 c-3 -10 -5 -4 -5 12 0 17 2 24 5 18 2 -7 2 -21 0 -30z m0 -95
c-3 -8 -6 -5 -6 6 -1 11 2 17 5 13 3 -3 4 -12 1 -19z m0 -75 c-3 -10 -5 -4 -5
12 0 17 2 24 5 18 2 -7 2 -21 0 -30z m-540 -520 c-3 -10 -5 -2 -5 17 0 19 2
27 5 18 2 -10 2 -26 0 -35z m0 -75 c-3 -8 -6 -5 -6 6 -1 11 2 17 5 13 3 -3 4
-12 1 -19z"/>
<path d="M5730 5859 c-52 -16 -100 -56 -121 -103 -17 -38 -19 -75 -19 -552 l0
-511 23 -44 c16 -29 40 -54 72 -74 l48 -30 241 0 c229 0 243 1 282 22 52 28
90 72 104 121 13 50 14 994 0 1044 -11 39 -57 90 -105 116 -25 14 -67 17 -260
19 -136 1 -244 -2 -265 -8z m374 -224 l26 -24 0 -401 0 -401 -26 -24 c-25 -23
-35 -25 -125 -25 -53 0 -105 3 -114 6 -42 17 -45 44 -45 449 l0 387 29 29 c29
28 32 29 129 29 91 0 101 -2 126 -25z"/>
<path d="M6560 5205 l0 -665 115 0 115 0 1 438 c0 240 3 430 6 422 3 -8 43
-121 88 -250 46 -129 93 -261 105 -293 l22 -58 61 3 62 3 105 305 105 305 3
-438 2 -437 115 0 115 0 0 665 0 666 -126 -3 -126 -3 -122 -333 c-66 -184
-125 -334 -130 -334 -10 1 -105 249 -190 497 -27 77 -53 148 -58 158 -8 15
-25 17 -138 17 l-130 0 0 -665z"/>
<path d="M7770 5206 l0 -666 115 0 115 0 0 220 0 220 168 0 c203 0 258 12 313
70 22 23 41 55 48 83 15 60 15 527 0 582 -15 55 -52 101 -102 128 -40 21 -53
22 -349 25 l-308 3 0 -665z m501 425 l29 -29 0 -170 c0 -94 -3 -178 -6 -187
-13 -33 -59 -45 -179 -45 l-115 0 0 230 0 230 121 0 c120 0 121 0 150 -29z"/>
<path d="M8640 5765 l0 -105 150 0 150 0 0 -560 0 -560 115 0 115 0 0 560 0
560 130 0 130 0 0 105 0 105 -395 0 -395 0 0 -105z"/>
<path d="M2920 5265 c0 -55 3 -65 18 -65 10 0 13 -3 6 -8 -6 -4 -14 -24 -17
-44 l-6 -38 270 0 269 0 0 110 0 110 -270 0 -270 0 0 -65z m23 40 c-3 -9 -8
-14 -10 -11 -3 3 -2 9 2 15 9 16 15 13 8 -4z m507 -85 l0 -100 -247 2 -248 3
243 2 242 3 0 89 0 88 -237 2 c-130 1 -239 4 -242 6 -2 3 107 5 242 5 l247 0
0 -100z m-513 8 c-3 -8 -6 -5 -6 6 -1 11 2 17 5 13 3 -3 4 -12 1 -19z"/>
<path d="M852 5145 c0 -16 2 -22 5 -12 2 9 2 23 0 30 -3 6 -5 -1 -5 -18z"/>
</g>
</svg>
