<?xml version="1.0" encoding="UTF-8"?>
<svg width="126px" height="76px" viewBox="0 0 126 76" version="1.1" xmlns="http://www.w3.org/2000/svg" xmlns:xlink="http://www.w3.org/1999/xlink">
    <title>AWS Logo</title>
    <g stroke="none" stroke-width="1" fill="none" fill-rule="evenodd">
        <g transform="translate(-3.000000, -3.000000)" fill="#FF9900">
            <path d="M38.1573333,40.7346667 C38.1573333,41.8773333 38.2853333,42.7893333 38.5093333,43.4346667 C38.7653333,44.08 39.1066667,44.7573333 39.5773333,45.4666667 C39.7373333,45.6906667 39.8013333,45.9146667 39.8013333,46.1066667 C39.8013333,46.3626667 39.6413333,46.6186667 39.2893333,46.8746667 L37.4973333,48.0173333 C37.2413333,48.1773333 36.9853333,48.2626667 36.7613333,48.2626667 C36.5053333,48.2626667 36.2493333,48.1346667 35.9933333,47.9106667 C35.5226667,47.4826667 35.116,47.0333333 34.7746667,46.584 C34.4333333,46.1066667 34.092,45.5573333 33.7293333,44.88 C32.0426667,46.968 29.9013333,48.0173333 27.2773333,48.0173333 C25.4,48.0173333 23.9013333,47.4826667 22.8226667,46.4253333 C21.744,45.368 21.2093333,43.9333333 21.2093333,42.1413333 C21.2093333,40.2213333 21.8546667,38.6586667 23.1653333,37.4733333 C24.476,36.288 26.2253333,35.6853333 28.4293333,35.6853333 C29.2773333,35.6853333 30.1573333,35.7493333 31.0693333,35.8453333 C31.9813333,35.9413333 32.9253333,36.1013333 33.9413333,36.2933333 L33.9413333,34.2613333 C33.9413333,32.6346667 33.6213333,31.4813333 32.9893333,30.8253333 C32.3253333,30.1693333 31.2146667,29.8493333 29.6093333,29.8493333 C28.7613333,29.8493333 27.8813333,29.9453333 26.9693333,30.1693333 C26.0573333,30.3933333 25.1773333,30.6813333 24.3293333,31.0546667 C23.9453333,31.2466667 23.6573333,31.3426667 23.4653333,31.3746667 C23.2733333,31.4066667 23.1333333,31.4386667 23.0373333,31.4386667 C22.7173333,31.4386667 22.5573333,31.1826667 22.5573333,30.6386667 L22.5573333,29.3386667 C22.5573333,28.9226667 22.5893333,28.6026667 22.6853333,28.4106667 C22.7813333,28.2186667 22.9733333,28.0266667 23.2933333,27.8346667 C24.1413333,27.3426667 25.1773333,26.9373333 26.4026667,26.6173333 C27.628,26.2653333 28.9173333,26.1053333 30.2706667,26.1053333 C33.0346667,26.1053333 35.0346667,26.7186667 36.2626667,27.9466667 C37.4586667,29.1746667 38.0613333,31.0866667 38.0613333,33.6786667 L38.0613333,40.7346667 L38.1573333,40.7346667 Z M28.7293333,44.4 C29.5453333,44.4 30.3933333,44.2293333 31.2733333,43.8986667 C32.1533333,43.568 32.9053333,42.9973333 33.5293333,42.2346667 C33.8706667,41.7746667 34.1266667,41.2506667 34.2546667,40.6586667 C34.3826667,40.0666667 34.4786667,39.3253333 34.4786667,38.4453333 L34.4786667,37.9213333 C33.7053333,37.7613333 32.8893333,37.6333333 32.0733333,37.5373333 C31.2573333,37.4413333 30.4626667,37.3986667 29.6786667,37.3986667 C28.2866667,37.3986667 27.2773333,37.6653333 26.6213333,38.2146667 C25.9653333,38.764 25.6453333,39.5586667 25.6453333,40.6373333 C25.6453333,41.6533333 25.9013333,42.4053333 26.4253333,42.9226667 C26.9173333,43.4826667 27.6906667,43.7493333 28.7293333,43.7493333 L28.7293333,44.4 Z M49.8173333,47.8893333 C49.4013333,47.8893333 49.1133333,47.8253333 48.9213333,47.6653333 C48.7293333,47.5373333 48.5693333,47.2493333 48.4413333,46.8333333 L42.8973333,27.5626667 C42.7693333,27.1466667 42.7053333,26.8586667 42.7053333,26.7306667 C42.7053333,26.4106667 42.8653333,26.2506667 43.1853333,26.2506667 L45.5293333,26.2506667 C45.9773333,26.2506667 46.2653333,26.3146667 46.4253333,26.4746667 C46.6173333,26.6026667 46.7453333,26.8906667 46.8733333,27.3066667 L50.8653333,43.9973333 L54.5373333,27.3066667 C54.6333333,26.8586667 54.7613333,26.6026667 54.9533333,26.4746667 C55.1453333,26.3466667 55.4653333,26.2506667 55.8813333,26.2506667 L57.8173333,26.2506667 C58.2653333,26.2506667 58.5853333,26.3146667 58.7773333,26.4746667 C58.9693333,26.6026667 59.1293333,26.8906667 59.1933333,27.3066667 L62.9293333,44.2293333 L67.0173333,27.3066667 C67.1453333,26.8586667 67.3053333,26.6026667 67.4653333,26.4746667 C67.6573333,26.3466667 67.9453333,26.2506667 68.3613333,26.2506667 L70.5653333,26.2506667 C70.8853333,26.2506667 71.0453333,26.4106667 71.0453333,26.7306667 C71.0453333,26.8586667 71.0133333,26.9866667 70.9813333,27.1466667 C70.9493333,27.3066667 70.8853333,27.5306667 70.7893333,27.8186667 L65.0493333,46.8333333 C64.9213333,47.2493333 64.7613333,47.5373333 64.5693333,47.6653333 C64.3773333,47.7933333 64.0573333,47.8573333 63.6733333,47.8573333 L61.6093333,47.8573333 C61.1613333,47.8573333 60.8413333,47.7933333 60.6493333,47.6333333 C60.4573333,47.4733333 60.2973333,47.2173333 60.2333333,46.8013333 L56.5613333,30.7693333 L52.9213333,46.7693333 C52.8253333,47.1853333 52.6973333,47.4413333 52.5053333,47.6013333 C52.3133333,47.7613333 51.9613333,47.8253333 51.5453333,47.8253333 L49.8173333,47.8253333 L49.8173333,47.8893333 Z M80.5973333,48.3373333 C79.7493333,48.3373333 78.9013333,48.2413333 78.0853333,48.0813333 C77.2693333,47.9213333 76.5813333,47.7293333 76.0573333,47.5053333 C75.6413333,47.3133333 75.3533333,47.1213333 75.2573333,46.9293333 C75.1613333,46.7373333 75.0973333,46.4813333 75.0973333,46.1933333 L75.0973333,44.8613333 C75.0973333,44.3173333 75.2573333,44.0613333 75.5773333,44.0613333 C75.6733333,44.0613333 75.7693333,44.0933333 75.8973333,44.1253333 C76.0253333,44.1573333 76.2173333,44.2213333 76.4413333,44.3173333 C77.1613333,44.6373333 77.9453333,44.8933333 78.7613333,45.0533333 C79.6093333,45.2133333 80.4253333,45.2773333 81.2733333,45.2773333 C82.6013333,45.2773333 83.6173333,45.0533333 84.3053333,44.5933333 C84.9933333,44.1333333 85.3453333,43.4666667 85.3453333,42.6186667 C85.3453333,42.0586667 85.1853333,41.5986667 84.8653333,41.2253333 C84.5453333,40.8533333 83.9533333,40.5013333 83.1053333,40.1813333 L79.7173333,38.8173333 C78.3893333,38.3253333 77.4133333,37.6333333 76.8213333,36.7533333 C76.2293333,35.9053333 75.9413333,34.9853333 75.9413333,34.0093333 C75.9413333,33.1613333 76.1333333,32.4093333 76.5173333,31.7533333 C76.9013333,31.0973333 77.4133333,30.5373333 78.0533333,30.1053333 C78.6933333,29.6453333 79.4133333,29.3253333 80.2613333,29.1013333 C81.1093333,28.8773333 81.9893333,28.7813333 82.9013333,28.7813333 C83.3813333,28.7813333 83.8933333,28.8133333 84.3693333,28.8773333 C84.8653333,28.9413333 85.3133333,29.0373333 85.7613333,29.1333333 C86.1773333,29.2613333 86.5613333,29.3893333 86.8813333,29.5173333 C87.2013333,29.6453333 87.4573333,29.7733333 87.6173333,29.9333333 C87.8093333,30.0613333 87.9373333,30.1893333 88.0013333,30.3493333 C88.0653333,30.5093333 88.0973333,30.7333333 88.0973333,31.0226667 L88.0973333,32.2506667 C88.0973333,32.7946667 87.9373333,33.0506667 87.6173333,33.0506667 C87.4893333,33.0506667 87.2653333,32.9866667 86.9773333,32.8586667 C85.9293333,32.3666667 84.7653333,32.1106667 83.4853333,32.1106667 C82.2893333,32.1106667 81.3453333,32.3026667 80.7213333,32.6866667 C80.0973333,33.0706667 79.7773333,33.6626667 79.7773333,34.5106667 C79.7773333,35.0706667 79.9693333,35.5626667 80.3213333,35.9373333 C80.6733333,36.3213333 81.3453333,36.7053333 82.3293333,37.0573333 L85.6333333,38.4173333 C86.9293333,38.9093333 87.8733333,39.5653333 88.4333333,40.3813333 C88.9933333,41.1973333 89.2813333,42.1093333 89.2813333,43.1253333 C89.2813333,44.0053333 89.0893333,44.7893333 88.7053333,45.4773333 C88.3213333,46.1653333 87.8093333,46.7573333 87.1373333,47.2173333 C86.4653333,47.6773333 85.6653333,48.0173333 84.7533333,48.2413333 C83.8093333,48.3053333 82.8253333,48.3373333 80.5973333,48.3373333 Z M98.9973333,47.9213333 C98.5813333,47.9213333 98.2613333,47.8253333 98.0693333,47.6333333 C97.8773333,47.4413333 97.7493333,47.0893333 97.7493333,46.6093333 L97.7493333,27.4986667 C97.7493333,27.0186667 97.8453333,26.6666667 98.0373333,26.4746667 C98.2293333,26.2826667 98.5493333,26.1866667 98.9653333,26.1866667 L101.213333,26.1866667 C101.629333,26.1866667 101.949333,26.2826667 102.141333,26.4746667 C102.333333,26.6666667 102.429333,27.0186667 102.429333,27.4986667 L102.429333,30.1693333 C103.789333,27.5626667 105.901333,26.2506667 108.781333,26.2506667 C110.573333,26.2506667 112.045333,26.7426667 113.157333,27.7266667 C114.269333,28.7106667 114.813333,30.1053333 114.813333,31.9293333 L114.813333,46.6093333 C114.813333,47.0893333 114.717333,47.4413333 114.525333,47.6333333 C114.333333,47.8253333 114.013333,47.9213333 113.597333,47.9213333 L111.253333,47.9213333 C110.837333,47.9213333 110.517333,47.8253333 110.325333,47.6333333 C110.133333,47.4413333 110.037333,47.0893333 110.037333,46.6093333 L110.037333,33.6626667 C110.037333,31.4386667 108.973333,30.3173333 106.829333,30.3173333 C105.629333,30.3173333 104.645333,30.7013333 103.885333,31.4706667 C103.125333,32.24 102.749333,33.2026667 102.749333,34.3666667 L102.749333,46.6093333 C102.749333,47.0893333 102.653333,47.4413333 102.461333,47.6333333 C102.269333,47.8253333 101.949333,47.9213333 101.533333,47.9213333 L98.9973333,47.9213333 Z M66.6013333,76.0173333 C51.0013333,76.0173333 38.1573333,72.4 28.9213333,65.1653333 C28.2973333,64.6733333 28.6173333,63.9853333 29.3373333,64.3693333 C39.4813333,70.0373333 52.1653333,73.3973333 65.3973333,73.3973333 C74.0333333,73.3973333 83.4533333,71.9626667 92.2293333,68.9973333 C93.2453333,68.6133333 94.0933333,69.5893333 93.2453333,70.3413333 C88.9653333,73.9493333 78.5773333,76.0173333 66.6013333,76.0173333 Z M70.5013333,71.8933333 C69.0373333,69.9733333 71.1786667,69.3813333 72.1626667,69.1253333 C76.5813333,68.1093333 83.9773333,68.8613333 85.1733333,70.4026667 C86.3693333,71.944 84.5773333,78.6026667 80.4573333,79.9733333 C79.5133333,80.2933333 78.6973333,79.7373333 79.0813333,78.9213333 C80.2773333,76.3146667 71.9626667,73.8133333 70.5013333,71.8933333 Z"></path>
        </g>
    </g>
</svg>